<svg width="1439" height="1024" viewBox="0 0 1439 1024" fill="none" xmlns="http://www.w3.org/2000/svg">
<g opacity="0.35">
<path d="M719.5 1540.5C918.552 1540.5 1098.84 1483.09 1229.42 1390.17C1360 1297.25 1441 1168.7 1441 1026.5C1441 884.298 1360 755.75 1229.42 662.832C1098.84 569.91 918.552 512.5 719.5 512.5C520.448 512.5 340.157 569.91 209.577 662.832C79.0014 755.75 -2 884.298 -2 1026.5C-2 1168.7 79.0014 1297.25 209.577 1390.17C340.157 1483.09 520.448 1540.5 719.5 1540.5Z" stroke="#B528EB" stroke-width="4"/>
<path d="M722 513.5C563.529 674.726 341.67 1105.84 722 1540.5" stroke="#B528EB" stroke-width="4"/>
<path d="M722 1540.5C879.716 1379.27 1100.52 948.158 722 513.5" stroke="#B528EB" stroke-width="4"/>
<path d="M720 513.5C384.193 679.657 -85.9379 1117.68 720 1540.5" stroke="#B528EB" stroke-width="4"/>
<path d="M724 1540.5C1056.79 1374.34 1522.69 936.323 724 513.5" stroke="#B528EB" stroke-width="4"/>
<line y1="1024.5" x2="1439" y2="1024.5" stroke="#B528EB" stroke-width="4"/>
<line x1="722" y1="515.5" x2="722" y2="1539.5" stroke="#B528EB" stroke-width="4"/>
<line x1="291" y1="612.5" x2="1147" y2="612.5" stroke="#B528EB" stroke-width="4"/>
<line x1="111" y1="750.5" x2="1328" y2="750.5" stroke="#B528EB" stroke-width="4"/>
<line x1="25.0014" y1="887.5" x2="1414" y2="888.5" stroke="#B528EB" stroke-width="4"/>
</g>
<g opacity="0.35">
<path d="M719.5 513.5C918.552 513.5 1098.84 456.09 1229.42 363.168C1360 270.25 1441 141.702 1441 -0.5C1441 -142.702 1360 -271.25 1229.42 -364.168C1098.84 -457.09 918.552 -514.5 719.5 -514.5C520.448 -514.5 340.157 -457.09 209.577 -364.168C79.0014 -271.25 -2 -142.702 -2 -0.5C-2 141.702 79.0014 270.25 209.577 363.168C340.157 456.09 520.448 513.5 719.5 513.5Z" stroke="#B528EB" stroke-width="4"/>
<path d="M722 -513.5C563.529 -352.274 341.67 78.8419 722 513.5" stroke="#B528EB" stroke-width="4"/>
<path d="M722 513.5C879.716 352.274 1100.52 -78.842 722 -513.5" stroke="#B528EB" stroke-width="4"/>
<path d="M720 -513.5C384.193 -347.343 -85.9379 90.6766 720 513.5" stroke="#B528EB" stroke-width="4"/>
<path d="M724 513.5C1056.79 347.343 1522.69 -90.6766 724 -513.5" stroke="#B528EB" stroke-width="4"/>
<line x1="722" y1="-511.5" x2="722" y2="512.5" stroke="#B528EB" stroke-width="4"/>
<line x1="286.998" y1="411" x2="1154" y2="409.995" stroke="#B528EB" stroke-width="4"/>
<line x1="109" y1="274" x2="1330" y2="274" stroke="#B528EB" stroke-width="4"/>
<line x1="25.0014" y1="135.5" x2="1414" y2="136.5" stroke="#B528EB" stroke-width="4"/>
</g>
</svg>
