<svg width="1394" height="1189" xmlns="http://www.w3.org/2000/svg" xml:space="preserve" enable-background="new 0 0 2000 2000" version="1.1">
  <metadata></metadata>
  <g>
    <title>Layer 1</title>
    <g id="svg_1">
      <path id="svg_2" fill="#b528eb" d="m343.577,419.58301c18.531,0 37.024,-2.435 54.92,-7.28c11.205,-3.038 22.145,-7.015 32.685,-11.865c-1.942,-13.145 -2.913,-26.415 -2.913,-39.7c0,-71.57 28.178,-139.58 78.777,-190.181c10.77,-10.771 22.438,-20.612 34.859,-29.412c-13.34,-38.604 -37.646,-72.406 -70.006,-97.411c-36.803,-28.438 -81.823,-43.729 -128.322,-43.729c-55.839,0 -108.875,21.969 -148.349,61.442c-39.476,39.478 -61.447,92.51 -61.447,148.349c0,55.835 21.976,108.87 61.447,148.348c39.474,39.473 92.51,61.439 148.349,61.439z"/>
      <path id="svg_3" fill="#b528eb" d="m548.886,509.08301c39.475,39.479 92.51,61.446 148.345,61.446c55.839,0 108.875,-21.967 148.35,-61.446c39.479,-39.471 61.442,-92.511 61.442,-148.346s-21.963,-108.87 -61.442,-148.345c-39.475,-39.479 -92.511,-61.443 -148.35,-61.443c-55.835,0 -108.87,21.964 -148.345,61.443c-39.478,39.475 -61.443,92.51 -61.443,148.345c0,55.836 21.964,108.875 61.443,148.346z"/>
      <path id="svg_4" fill="#b528eb" d="m966.195,360.73701c0,13.285 -0.967,26.559 -2.912,39.7c10.539,4.851 21.479,8.827 32.685,11.863c17.891,4.847 36.384,7.279 54.918,7.279c55.84,0 108.875,-21.968 148.35,-61.44c39.475,-39.478 61.443,-92.513 61.443,-148.348c0,-55.839 -21.969,-108.87 -61.443,-148.349c-39.475,-39.476 -92.51,-61.442 -148.35,-61.442c-46.502,0 -91.521,15.293 -128.321,43.729c-32.36,25.008 -56.666,58.813 -70.005,97.414c12.418,8.8 24.092,18.646 34.854,29.412c50.602,50.602 78.781,118.609 78.781,190.182z"/>
      <path id="svg_5" fill="#b528eb" d="m1299.723,539.06401c-72.773,-42.919 -165.186,-60.312 -248.84,-60.312c-22.359,0 -44.743,1.2 -66.971,3.714c-17.145,1.934 -34.215,4.644 -51.111,8.162c-12.221,22.112 -27.521,42.433 -45.389,60.293c-13.6,13.603 -28.628,25.723 -44.785,36.124c46.435,10.973 92.485,27.906 133.489,52.087c65.673,38.729 123.86,100.525 123.86,181.047l0,216.968c38.011,-1.774 76.107,-5.623 113.585,-12.159c32.688,-5.701 65.729,-13.529 96.957,-24.822c21.271,-7.691 83.938,-32.621 83.938,-61.455l0,-269.48c0.002,-57.959 -48.443,-102.875 -94.733,-130.167z"/>
      <path id="svg_6" fill="#b528eb" d="m946.071,690.00201c-72.775,-42.915 -165.184,-60.305 -248.84,-60.305c-83.652,0 -176.064,17.39 -248.839,60.305c-46.286,27.299 -94.731,72.208 -94.731,130.174l0,269.479c0,30.166 67.129,55.719 89.318,63.393c36.533,12.64 75.469,20.834 113.682,26.387c46.43,6.734 93.668,9.708 140.57,9.708c46.907,0 94.138,-2.974 140.574,-9.708c38.213,-5.553 77.152,-13.747 113.682,-26.387c22.19,-7.674 89.318,-33.227 89.318,-63.393l0,-269.479c0,-57.963 -48.445,-102.876 -94.734,-130.174z"/>
      <path id="svg_7" fill="#b528eb" d="m418.342,639.13301c41.009,-24.185 87.058,-41.117 133.494,-52.09c-16.158,-10.401 -31.19,-22.521 -44.791,-36.124c-17.858,-17.86 -33.163,-38.181 -45.381,-60.293c-16.899,-3.519 -33.97,-6.229 -51.121,-8.163c-22.223,-2.513 -44.604,-3.712 -66.967,-3.712c-83.653,0 -176.063,17.393 -248.839,60.312c-46.29,27.292 -94.737,72.208 -94.737,130.167l0,269.479c0,28.834 62.67,53.765 83.941,61.455c31.23,11.293 64.271,19.121 96.952,24.822c37.481,6.536 75.581,10.385 113.592,12.159l0,-216.969c0.001,-80.521 58.189,-142.318 123.857,-181.043z"/>
    </g>
  </g>
</svg>
