<svg width="86" height="70" xmlns="http://www.w3.org/2000/svg" version="1.1">
 <g>
  <title>Layer 1</title>
  <g stroke="null" id="svg_1">
   <path stroke="null" id="svg_2" overflow="visible" display="inline" visibility="visible" marker="none" fill="#b528eb" d="m1.72053,0c-0.95317,0 -1.72053,0.892 -1.72053,2l0,16l73.98264,0l0,-16c0,-1.108 -0.76735,-2 -1.72053,-2l-70.54159,0zm15.48474,5c1.90041,0 3.44105,1.7908 3.44105,4c0,2.2091 -1.54065,4 -3.44105,4c-1.90041,0 -3.44105,-1.7909 -3.44105,-4c0,-2.2092 1.54065,-4 3.44105,-4zm39.57211,0c1.90041,0 3.44105,1.7908 3.44105,4c0,2.2091 -1.54065,4 -3.44105,4c-1.90041,0 -3.44105,-1.7909 -3.44105,-4c0,-2.2092 1.54065,-4 3.44105,-4zm-56.77738,17l0,46.00002c0,1.108 0.76735,2 1.72053,2l70.54159,0c0.95317,0 1.72053,-0.892 1.72053,-2l0,-46.00002l-73.98264,0zm11.18342,8l10.32316,0l0,14.00002l-10.32316,0l0,-14.00002zm13.76421,0l10.32316,0l0,14.00002l-10.32316,0l0,-14.00002zm13.76421,0l10.32316,0l0,14.00002l-10.32316,0l0,-14.00002zm-27.52843,18.00002l10.32316,0l0,14l-10.32316,0l0,-14zm13.76421,0l10.32316,0l0,14l-10.32316,0l0,-14z"/>
  </g>
  <path id="svg_6" d="m15.95623,15.77959c-3.37568,0 -6.10998,-2.91659 -6.10998,-6.51731c0,-3.60072 2.7343,-6.51731 6.10998,-6.51731c3.37568,0 6.10998,2.91659 6.10998,6.51731c0,3.60072 -2.7343,6.51731 -6.10998,6.51731z" opacity="undefined" fill="#b528eb"/>
  <path id="svg_7" d="m54.74673,15.22064c-4.16334,0 -7.53564,-2.7343 -7.53564,-6.10998c0,-3.37568 3.3723,-6.10998 7.53564,-6.10998c4.16334,0 7.53564,2.7343 7.53564,6.10998c0,3.37568 -3.3723,6.10998 -7.53564,6.10998z" opacity="undefined" fill="#b528eb"/>
 </g>

</svg>