<svg width="71" height="59.00000000000001" xmlns="http://www.w3.org/2000/svg" version="1.1" enable-background="new 0 0 100 100" xml:space="preserve">
 <g>
  <title>Layer 1</title>
  <g id="svg_8">
   <path fill="#000000" d="m67.951,30.246c-7.27,6.245 -18.84,13.689 -32.673,13.689s-25.402,-7.443 -32.672,-13.689l-2.606,3.034c2.068,1.777 4.476,3.644 7.164,5.429l-5.993,8.248l3.236,2.352l6.161,-8.479c2.782,1.609 5.816,3.08 9.066,4.26l-3.339,10.277l3.805,1.236l3.35,-10.312c3.115,0.855 6.397,1.42 9.828,1.58l0,10.82l4,0l0,-10.82c3.431,-0.16 6.713,-0.725 9.827,-1.58l3.352,10.314l3.805,-1.236l-3.34,-10.279c3.25,-1.18 6.283,-2.648 9.065,-4.26l6.163,8.482l3.236,-2.352l-5.995,-8.252c2.689,-1.785 5.098,-3.65 7.167,-5.429l-2.607,-3.033z" id="svg_9"/>
   <path fill="#000000" d="m35.279,4c13.834,0 25.403,7.445 32.672,13.69l2.607,-3.034c-7.782,-6.686 -20.219,-14.656 -35.279,-14.656c-15.059,0 -27.497,7.97 -35.279,14.656l2.606,3.034c7.27,-6.245 18.84,-13.69 32.673,-13.69z" id="svg_10"/>
  </g>
  <ellipse ry="15" rx="15.02532" id="svg_2" cy="24.54458" cx="35.26705" stroke="#000" fill="#000000"/>
 </g>

</svg>