<svg width="197" height="195" xmlns="http://www.w3.org/2000/svg" preserveAspectRatio="xMidYMid meet" version="1.0">
 <metadata>Created by potrace 1.16, written by Peter Selinger 2001-2019</metadata>

 <g>
  <title>Layer 1</title>
  <metadata>Created by potrace 1.16, written by Peter Selinger 2001-2019</metadata>
  <metadata>Created by potrace 1.16, written by Peter Selinger 2001-2019</metadata>
  <g id="svg_8">
   <path fill="#b528eb" stroke="null" id="svg_2" d="m79.89485,13.23427l0,13.53822l46.4272,0l46.4272,0l0,52.64862l0,52.64862l-30.98511,0l-31.08604,0l-15.34116,13.6385l-15.44209,13.53822l0,18.15124l0,18.05096l6.86315,-6.01699c3.73436,-3.30934 12.91887,-11.43227 20.3876,-18.05096l13.62537,-12.13425l39.66498,-0.10028l39.56405,0l0,-79.72505l0,-79.72505l-60.05258,0l-60.05258,0l0,13.53822z"/>
   <path fill="#b528eb" stroke="null" id="svg_3" d="m0,92.91978l0,66.32886l40,0l40,0l0,-13.67083l0,-13.67083l-26.5,0l-26.5,0l0,-38.98719l0,-38.98719l26.5,0l26.5,0l0,-13.67083l0,-13.67083l-40,0l-40,0l0,66.32886z"/>
   <ellipse ry="13.68952" rx="13.61039" id="svg_4" cy="96.92279" cx="58.1777" stroke="null" fill="#7def51"/>
   <ellipse ry="13.68952" rx="13.61039" id="svg_6" cy="96.60627" cx="140.95413" stroke="null" fill="#7def51"/>
   <ellipse ry="13.68952" rx="13.61039" id="svg_7" cy="96.92279" cx="99.80532" stroke="null" fill="#7def51"/>
  </g>
 </g>
</svg>