<svg width="28" height="26" xmlns="http://www.w3.org/2000/svg" data-name="Layer 1">
 <title>sign-out-leave-back-arrow-exit</title>

 <g>
  <title>Layer 1</title>
  <g transform="rotate(-180 14.0001 13)" id="svg_5">
   <path id="svg_1" d="m3.41312,12l3.293,-3.293a1,1 0 0 0 -1.414,-1.413l-5,5a1,1 0 0 0 -0.216,1.089a1,1 0 0 0 0.216,0.325l5,5a1,1 0 0 0 1.414,-1.414l-3.293,-3.294l5.587,0l0,-2l-5.587,0z"/>
   <path id="svg_2" d="m9.00012,3l0,9l11,0a1,1 0 0 1 0,2l-11,0l0,9a3,3 0 0 0 3,3l13,0a3,3 0 0 0 3,-3l0,-20a3,3 0 0 0 -3,-3l-13,0a3,3 0 0 0 -3,3z"/>
  </g>
  <rect id="svg_13" height="5.50748" width="5.01793" y="0.03437" x="-0.2313"/>
  <rect id="svg_14" height="7.46569" width="6.3642" y="18.51502" x="-0.10891"/>
  <rect id="svg_16" height="6.73136" width="4.2836" y="0.03437" x="14.70009"/>
  <rect id="svg_17" height="6.85375" width="3.91643" y="19.12696" x="15.06725"/>
 </g>
</svg>